# xmcd
#
# Track frame offsets:
#	182
#	21995
#	39740
#	56070
#	75182
#	99477
#	113050
#	130795
#	146485
#	161202
#
# Disc length: 2340 seconds
#
# Revision: 2
# Processed by: cddbd v1.5.1PL0 Copyright (c) Steve Scherf et al.
# Submitted via: dBpowerAMP V4.0
#
DISCID=7f09220a
DTITLE=The Judds - Love Can Build A Bridge
DYEAR=1990
DGENRE=Country
TTITLE0=Born to be Blue
TTITLE1=Calling in the Wind
TTITLE2=In My Dreams
TTITLE3=Rompin' Stompin' Blues
TTITLE4=Love can build a Bridge
TTITLE5=This Country's Rockin'
TTITLE6=One Hundred and Two
TTITLE7=John Deere Tractor
TTITLE8=Talk About Love
TTITLE9=Are The Roses Not Blooming
EXTD=1990\n
EXTT0=
EXTT1=
EXTT2=
EXTT3=
EXTT4=
EXTT5=
EXTT6=
EXTT7=
EXTT8=
EXTT9=
PLAYORDER=
